<svg width="32" height="32" viewBox="0 0 32 32" fill="none" xmlns="http://www.w3.org/2000/svg">
<path d="M16 23.9166C16.4486 23.9166 16.8249 23.7646 17.1289 23.4606C17.4329 23.1566 17.5843 22.7808 17.5833 22.3333V17.5833H22.3729C22.8215 17.5833 23.1909 17.4313 23.4812 17.1273C23.7715 16.8233 23.9166 16.4475 23.9166 16C23.9166 15.5513 23.7646 15.175 23.4606 14.871C23.1566 14.567 22.7808 14.4156 22.3333 14.4166H17.5833V9.62704C17.5833 9.17843 17.4313 8.80899 17.1273 8.51871C16.8233 8.22843 16.4475 8.08329 16 8.08329C15.5513 8.08329 15.175 8.23529 14.871 8.53929C14.567 8.84329 14.4156 9.21907 14.4166 9.66663V14.4166H9.62704C9.17843 14.4166 8.80899 14.5686 8.51871 14.8726C8.22843 15.1766 8.08329 15.5524 8.08329 16C8.08329 16.4486 8.23529 16.8249 8.53929 17.1289C8.84329 17.4329 9.21907 17.5843 9.66663 17.5833H14.4166V22.3729C14.4166 22.8215 14.5686 23.1909 14.8726 23.4812C15.1766 23.7715 15.5524 23.9166 16 23.9166ZM16 31.8333C13.8097 31.8333 11.7513 31.4174 9.82496 30.5856C7.89857 29.7538 6.22288 28.626 4.79788 27.202C3.37288 25.777 2.24502 24.1013 1.41429 22.175C0.583571 20.2486 0.167682 18.1902 0.166626 16C0.166626 13.8097 0.582515 11.7513 1.41429 9.82496C2.24607 7.89857 3.37393 6.22288 4.79788 4.79788C6.22288 3.37288 7.89857 2.24502 9.82496 1.41429C11.7513 0.583571 13.8097 0.167682 16 0.166626C18.1902 0.166626 20.2486 0.582515 22.175 1.41429C24.1013 2.24607 25.777 3.37393 27.202 4.79788C28.627 6.22288 29.7554 7.89857 30.5872 9.82496C31.419 11.7513 31.8343 13.8097 31.8333 16C31.8333 18.1902 31.4174 20.2486 30.5856 22.175C29.7538 24.1013 28.626 25.777 27.202 27.202C25.777 28.627 24.1013 29.7554 22.175 30.5872C20.2486 31.419 18.1902 31.8343 16 31.8333Z" fill="#4ECDC4"/>
</svg>
