<svg width="13" height="13" viewBox="0 0 13 13" fill="none" xmlns="http://www.w3.org/2000/svg">
<path d="M8.98283 2.60534L10.3948 4.01667M9.89083 1.36201L6.07283 5.18001C5.87555 5.37701 5.74101 5.628 5.68616 5.90134L5.3335 7.66667L7.09883 7.31334C7.37216 7.25867 7.62283 7.12467 7.82016 6.92734L11.6382 3.10934C11.7529 2.99461 11.8439 2.8584 11.906 2.7085C11.9681 2.55859 12 2.39793 12 2.23567C12 2.07342 11.9681 1.91275 11.906 1.76285C11.8439 1.61294 11.7529 1.47674 11.6382 1.36201C11.5234 1.24728 11.3872 1.15627 11.2373 1.09417C11.0874 1.03208 10.9268 1.00012 10.7645 1.00012C10.6022 1.00012 10.4416 1.03208 10.2917 1.09417C10.1418 1.15627 10.0056 1.24728 9.89083 1.36201V1.36201Z" stroke="#0B0B0B" stroke-linecap="round" stroke-linejoin="round"/>
<path d="M10.6667 9.00004V11C10.6667 11.3537 10.5263 11.6928 10.2762 11.9428C10.0262 12.1929 9.68704 12.3334 9.33341 12.3334H2.00008C1.64646 12.3334 1.30732 12.1929 1.05727 11.9428C0.807224 11.6928 0.666748 11.3537 0.666748 11V3.66671C0.666748 3.31309 0.807224 2.97395 1.05727 2.7239C1.30732 2.47385 1.64646 2.33337 2.00008 2.33337H4.00008" stroke="#0B0B0B" stroke-linecap="round" stroke-linejoin="round"/>
</svg>
